<svg width="529" height="219" viewBox="0 0 529 219" fill="none" xmlns="http://www.w3.org/2000/svg">
<path d="M474.941 217.5C467.741 217.5 462.041 215.5 457.841 211.5C453.841 207.5 451.841 201.7 451.841 194.1V177H384.641C377.241 177 371.341 175.4 366.941 172.2C362.541 168.8 360.341 163.7 360.341 156.9C360.341 152.9 361.241 148.8 363.041 144.6C364.841 140.4 368.041 135.2 372.641 129L450.341 15.9001C453.741 10.9001 457.541 7.1001 461.741 4.5001C465.941 1.9001 470.741 0.600098 476.141 0.600098C482.541 0.600098 487.641 2.6001 491.441 6.60011C495.441 10.4001 497.441 16.2001 497.441 24.0001V140.4H508.541C515.141 140.4 520.141 142 523.541 145.2C526.941 148.2 528.641 152.7 528.641 158.7C528.641 164.5 526.941 169 523.541 172.2C520.341 175.4 515.341 177 508.541 177H497.441V194.1C497.441 201.7 495.441 207.5 491.441 211.5C487.641 215.5 482.141 217.5 474.941 217.5ZM451.841 140.4V57.9001H460.541L396.641 151.8V140.4H451.841Z" fill="#5236FF"/>
<path d="M262.059 218.1C236.459 218.1 216.859 208.6 203.259 189.6C189.859 170.4 183.159 143.3 183.159 108.3C183.159 84.9 186.159 65.2 192.159 49.2C198.359 33 207.259 20.8 218.859 12.6C230.659 4.2 245.059 0 262.059 0C287.859 0 307.459 9.3 320.859 27.9C334.259 46.3 340.959 73.1 340.959 108.3C340.959 131.7 337.859 151.6 331.659 168C325.659 184.2 316.859 196.6 305.259 205.2C293.659 213.8 279.259 218.1 262.059 218.1ZM262.059 180.3C273.659 180.3 282.259 174.6 287.859 163.2C293.459 151.6 296.259 133.3 296.259 108.3C296.259 83.3 293.459 65.3 287.859 54.3C282.259 43.3 273.659 37.8 262.059 37.8C250.459 37.8 241.859 43.3 236.259 54.3C230.659 65.3 227.859 83.3 227.859 108.3C227.859 133.3 230.659 151.6 236.259 163.2C241.859 174.6 250.459 180.3 262.059 180.3Z" fill="#5236FF"/>
<path d="M115.176 217.5C107.976 217.5 102.276 215.5 98.0758 211.5C94.0758 207.5 92.0758 201.7 92.0758 194.1V177H24.8758C17.4758 177 11.5758 175.4 7.17577 172.2C2.77577 168.8 0.575775 163.7 0.575775 156.9C0.575775 152.9 1.47578 148.8 3.27577 144.6C5.07578 140.4 8.27577 135.2 12.8758 129L90.5758 15.9001C93.9758 10.9001 97.7758 7.1001 101.976 4.5001C106.176 1.9001 110.976 0.600098 116.376 0.600098C122.776 0.600098 127.876 2.6001 131.676 6.60011C135.676 10.4001 137.676 16.2001 137.676 24.0001V140.4H148.776C155.376 140.4 160.376 142 163.776 145.2C167.176 148.2 168.876 152.7 168.876 158.7C168.876 164.5 167.176 169 163.776 172.2C160.576 175.4 155.576 177 148.776 177H137.676V194.1C137.676 201.7 135.676 207.5 131.676 211.5C127.876 215.5 122.376 217.5 115.176 217.5ZM92.0758 140.4V57.9001H100.776L36.8758 151.8V140.4H92.0758Z" fill="#5236FF"/>
</svg>
