<svg width="310" height="268" viewBox="0 0 310 268" fill="none" xmlns="http://www.w3.org/2000/svg">
<rect x="27.0566" y="1" width="257.407" height="188.992" stroke="#C6C6C6" stroke-width="2" stroke-linejoin="round" stroke-dasharray="3 3"/>
<rect x="50.7617" y="33.9512" width="259.182" height="195.709" fill="#F1F1F1"/>
<rect x="57.1094" y="62.5137" width="246.487" height="162.914" fill="white"/>
<rect x="77.209" y="83.6719" width="204.172" height="118.483" rx="8" fill="#5236FF"/>
<rect x="286.67" y="46.6465" width="15.8683" height="4.23154" rx="2.11577" fill="#C4C4C4"/>
<circle cx="59.7541" cy="48.2326" r="2.64471" fill="#C4C4C4"/>
<circle cx="67.1594" cy="48.2326" r="2.64471" fill="#C4C4C4"/>
<circle cx="74.5646" cy="48.2326" r="2.64471" fill="#C4C4C4"/>
<path d="M111.875 147.721C107.818 145.242 102.015 171.949 99.6201 185.612L269.634 185.893C269.54 185.565 269.296 184.823 269.071 184.485C268.93 183.358 268.226 182.231 265.831 178.851C261.662 175.357 257.896 175.986 256.534 176.738C256.065 177.019 254.675 177.836 252.872 178.851C250.393 179.527 248.74 177.442 248.224 176.315C247.801 175.564 246.534 172.85 244.843 168.005C243.491 163.159 241.275 164.389 240.336 165.61C239.96 165.939 238.871 166.878 237.519 168.005C235.152 168.568 233.622 164.859 233.152 162.934C232.166 159.694 229.884 152.51 228.645 149.693C226.955 146.876 224.654 148.238 223.715 149.271C222.353 151.383 219.376 155.975 218.362 157.44C217.348 158.905 216.156 158.896 215.686 158.708C215.263 158.52 214.137 157.891 213.01 156.877C211.883 156.201 210.662 156.595 210.193 156.877C209.817 157.206 208.869 158.032 208.08 158.708C207.094 158.567 207.094 158.708 206.53 158.145C205.742 157.694 204.23 153.168 203.572 150.961C203.338 150.21 202.586 148.2 201.459 146.172C198.417 143.58 196.53 151.853 195.966 156.313C195.403 160.351 194.248 168.822 194.135 170.399C193.994 172.371 193.29 174.343 192.726 176.315C192.022 177.724 191.459 177.16 190.754 176.738C189.515 174.146 187.327 172.371 186.388 171.808C184.744 171.15 181.092 169.554 179.627 168.427C178.162 167.3 176.575 167.676 175.964 168.005C175.542 168.333 174.33 168.991 172.866 168.991C170.837 168.991 169.297 166.079 168.781 164.624C167.983 163.028 166.245 159.497 165.682 158.145C164.978 156.454 164.132 155.046 162.442 153.215C159.766 151.383 158.076 153.637 156.808 155.046C154.977 156.173 153.85 154.905 152.864 153.215C151.737 151.862 149.765 145.327 148.92 142.228C148.544 141.195 147.371 138.171 145.68 134.34C143.314 130.621 140.656 134.481 139.623 136.875C137.37 142.181 132.665 153.13 131.876 154.482C130.89 156.173 130.327 156.313 128.637 156.313C126.834 156.426 123.754 153.074 122.439 151.383C121.969 151.055 120.861 150.51 120.185 150.961C118.608 152.764 117.368 152.182 116.945 151.665C115.725 150.491 113.002 148.059 111.875 147.721Z" fill="url(#paint0_linear_117_1266)" style="mix-blend-mode:multiply"/>
<path d="M269.374 185.893C269.084 185.893 268.82 185.713 268.73 185.43C266.39 177.979 261.818 176.864 259.305 176.864C257.591 176.864 256.167 177.68 254.906 178.395C253.699 179.086 252.566 179.73 251.359 179.557C247.994 179.07 246.497 174.705 245.164 170.849C244.184 167.999 243.177 165.055 241.78 165.102C241.309 165.118 240.728 165.832 240.175 166.515C239.349 167.528 238.415 168.682 237.018 168.682C234.025 168.682 232.592 163.689 231.077 158.405C229.798 153.937 228.337 148.865 226.224 148.731C224.582 148.606 223.013 151.425 221.58 153.89C219.757 157.015 217.87 160.242 215.276 159.363C214.514 159.103 213.96 158.609 213.47 158.177C212.835 157.612 212.309 157.164 211.493 157.203C210.622 157.25 210.069 157.776 209.488 158.334C208.917 158.884 208.264 159.512 207.329 159.386C205.624 159.158 204.726 156.379 203.583 152.861C202.712 150.16 201.515 146.462 200.291 146.462C197.932 146.462 196.608 156.866 195.737 163.744C194.54 173.15 193.85 178.049 191.519 177.798C190.712 177.704 190.276 176.997 189.777 176.165C189.215 175.239 188.444 173.967 186.839 172.859C186.24 172.451 185.959 172.349 185.451 172.176C184.952 172.004 184.281 171.776 183.056 171.156C181.577 170.41 180.652 169.789 179.972 169.342C179.11 168.769 178.684 168.478 177.886 168.376C176.843 168.243 176.28 168.572 175.618 168.957C175.092 169.263 174.493 169.617 173.659 169.695C170.185 170.017 168.171 165.44 166.23 161.011C164.552 157.203 162.819 153.254 160.524 153.254C159.454 153.254 158.873 153.851 158.211 154.542C157.504 155.272 156.714 156.104 155.308 156.104C152.397 156.104 150.71 150.663 148.75 144.366C147.235 139.482 145.349 133.405 143.362 133.405C141.666 133.405 140.133 137.26 138.183 142.144C136.822 145.551 135.135 149.799 132.84 154.094C131.942 155.782 130.908 156.701 129.674 156.897C128.214 157.141 126.545 156.34 124.44 154.377C124.105 154.063 123.769 153.678 123.434 153.277C122.617 152.32 121.828 151.409 120.921 151.487C120.486 151.519 120.223 151.746 119.878 152.029C119.479 152.359 118.98 152.767 118.209 152.806C116.83 152.838 115.705 151.637 114.617 150.443C113.61 149.344 112.567 148.205 111.505 148.205C108.857 148.205 105.537 159.308 100.403 185.336C100.321 185.713 99.9674 185.948 99.6046 185.877C99.2417 185.807 98.9968 185.461 99.0694 185.1C105.437 152.806 108.258 146.894 111.496 146.894C113.156 146.894 114.463 148.315 115.605 149.572C116.485 150.537 117.438 151.527 118.136 151.495C118.445 151.479 118.644 151.33 118.998 151.032C119.415 150.686 119.941 150.247 120.803 150.184C122.427 150.066 123.506 151.322 124.459 152.445C124.758 152.799 125.057 153.152 125.357 153.435C127.107 155.06 128.441 155.774 129.438 155.609C130.228 155.476 130.944 154.785 131.634 153.497C133.892 149.265 135.57 145.057 136.913 141.673C139.226 135.902 140.75 132.086 143.362 132.086C146.337 132.086 148.052 137.598 150.038 143.981C151.535 148.794 153.394 154.785 155.308 154.785C156.088 154.785 156.551 154.353 157.231 153.639C157.966 152.877 158.873 151.935 160.524 151.935C163.699 151.935 165.522 156.088 167.463 160.485C169.223 164.474 171.028 168.596 173.532 168.376C174.058 168.329 174.466 168.094 174.929 167.819C175.654 167.395 176.552 166.869 178.058 167.065C179.174 167.206 179.827 167.646 180.725 168.251C181.405 168.706 182.258 169.279 183.664 169.986C184.807 170.559 185.414 170.771 185.895 170.936C186.43 171.124 186.866 171.266 187.61 171.784C189.451 173.048 190.349 174.524 190.939 175.498C191.174 175.882 191.528 176.471 191.673 176.487C192.798 176.181 193.769 168.604 194.404 163.587C195.819 152.445 196.998 145.143 200.3 145.143C202.513 145.143 203.656 148.7 204.88 152.469C205.588 154.659 206.658 157.965 207.52 158.083C207.792 158.114 208.091 157.847 208.554 157.392C209.189 156.787 210.051 155.955 211.429 155.884C212.826 155.814 213.652 156.544 214.387 157.195C214.822 157.58 215.23 157.941 215.729 158.114C217.28 158.64 218.877 155.884 220.428 153.23C222.142 150.294 223.947 147.263 226.324 147.412C229.39 147.601 230.841 152.673 232.383 158.043C233.635 162.409 235.05 167.355 237.027 167.355C237.771 167.355 238.46 166.508 239.132 165.683C239.876 164.764 240.647 163.814 241.735 163.775C244.084 163.689 245.2 166.806 246.452 170.425C247.658 173.919 249.019 177.877 251.568 178.246C252.312 178.356 253.201 177.845 254.244 177.249C255.577 176.487 257.237 175.537 259.314 175.537C261.636 175.537 267.333 176.463 270.027 185.037C270.136 185.391 269.936 185.76 269.582 185.87C269.51 185.885 269.437 185.893 269.374 185.893Z" fill="#49BAFD"/>
<path d="M106.1 175.751C103.395 175.976 100.559 182.512 99.4795 185.751C154.461 185.798 265.437 185.892 269.493 185.892C269.493 184.202 269.212 181.432 269.071 180.258C268.93 179.742 268.536 178.342 268.085 176.877C266.958 174.173 265.174 173.403 264.423 173.356C263.859 173.262 262.479 172.99 261.465 172.652C259.774 171.976 258.037 169.083 257.38 167.722L255.971 164.2C255.032 162.087 253.013 157.58 252.45 156.453C251.605 155.045 251.323 154.904 250.337 154.481C248.421 154.03 246.158 159.083 245.266 161.665L242.731 168.567L240.9 173.919C240.148 175.657 238.533 179.272 238.082 179.835C237.519 180.54 237.237 180.399 236.533 179.695C234.955 178.23 233.622 178.427 233.152 178.709C232.965 178.802 232.364 179.075 231.462 179.413C230.335 180.089 229.115 178.474 228.645 177.582C228.035 176.549 226.476 174.088 225.124 172.511C223.433 170.539 222.307 170.821 221.602 170.821C220.363 170.821 218.456 172.511 217.658 173.356C217.47 173.591 216.616 174.37 214.7 175.61C212.785 176.849 210.428 175.093 209.489 174.06L206.531 169.975C206.202 169.6 205.291 168.68 204.277 168.003C202.023 166.595 199.91 169.13 198.783 170.539C198.22 171.666 197.14 171.572 196.671 171.384C196.389 171.29 195.516 170.595 194.276 168.567C192.811 165.862 191.318 160.491 190.755 158.144L187.515 143.776L184.557 130.395C184.322 129.221 183.599 126.085 182.585 122.929C181.317 118.985 180.613 119.267 179.768 118.985C178.078 118.985 176.622 123.493 176.106 125.746C174.979 130.536 172.584 140.734 172.021 143.213C171.57 145.579 169.955 150.115 169.204 152.087C169.157 152.228 168.725 153.044 167.372 155.186C165.4 157.721 164.555 156.453 163.006 155.186C160.301 152.594 157.747 155.045 156.808 156.594L154.273 161.383C154.038 161.712 153.343 162.651 152.442 163.778C150.075 165.468 148.169 163.919 147.512 162.933L143.004 156.172C142.629 155.702 141.596 154.481 140.469 153.354C138.779 152.368 137.652 152.932 136.807 153.354C134.271 154.2 131.172 162.651 130.045 165.186C129.144 167.215 127.698 169.694 127.087 170.68C126.993 170.774 126.524 171.271 125.397 172.511C124.27 173.75 122.768 173.497 122.157 173.215C121.829 173.027 120.664 172.37 118.636 171.243C115.819 170.539 114.129 176.032 113.143 177.3C112.016 178.568 111.593 178.004 110.607 177.441C107.508 175.328 107.367 175.751 106.1 175.751Z" fill="url(#paint1_linear_117_1266)" style="mix-blend-mode:multiply"/>
<path d="M99.7265 185.884C99.6449 185.884 99.5542 185.866 99.4725 185.831C99.1278 185.672 98.9645 185.239 99.1097 184.859C101.623 178.104 104.063 174.82 106.576 174.82C108.281 174.82 109.415 175.676 110.331 176.365C111.093 176.939 111.538 177.257 112.019 177.133C112.844 176.93 113.325 175.862 113.887 174.634C114.495 173.292 115.185 171.773 116.564 170.952C118.224 169.972 119.548 170.802 120.709 171.535C121.453 172.003 122.161 172.453 122.986 172.506C125.889 172.718 128.139 167.65 130.307 162.74C132.657 157.425 134.879 152.409 138.381 152.127C141.347 151.879 143.334 155.199 145.276 158.396C147.072 161.363 148.768 164.171 150.855 163.65C152.433 163.252 153.531 161.221 154.692 159.067C156.134 156.383 157.631 153.61 160.398 153.442C161.976 153.336 162.902 154.193 163.655 154.873C164.244 155.411 164.634 155.738 165.152 155.738H165.161C168.336 155.738 171.003 144.286 173.144 135.085C175.62 124.383 177.153 118.325 179.703 118.281C179.712 118.281 179.721 118.281 179.73 118.281C182.733 118.281 184.683 126.952 187.867 142.255C190.344 154.193 193.746 170.537 197.193 170.537C197.202 170.537 197.211 170.537 197.211 170.537C197.81 170.528 198.345 169.919 198.971 169.221C199.914 168.162 201.066 166.829 203.08 166.926C205.557 167.023 206.936 169.133 208.26 171.173C209.449 172.992 210.564 174.705 212.397 175.155C214.411 175.65 215.853 174.21 217.386 172.683C218.974 171.102 220.779 169.301 223.247 170.246C225.342 171.049 226.785 173.398 228.064 175.473C229.461 177.742 230.386 179.093 231.375 178.784C231.584 178.714 231.801 178.581 232.055 178.431C232.672 178.051 233.443 177.592 234.577 177.778C235.648 177.954 236.265 178.599 236.718 179.067C236.872 179.226 237.063 179.42 237.145 179.455C238.061 179.747 240.601 172.427 241.826 168.895C244.982 159.782 247.278 153.787 250.117 153.787C250.144 153.787 250.181 153.787 250.208 153.787C252.403 153.884 253.963 157.672 255.769 162.06C257.628 166.581 259.742 171.694 262.409 172.197C262.482 172.206 262.591 172.215 262.736 172.232C263.561 172.303 265.276 172.444 266.473 173.504C268.106 174.952 270.057 178.14 270.057 185.151C270.057 185.566 269.757 185.892 269.385 185.892C269.013 185.892 268.714 185.557 268.714 185.151C268.714 178.74 267.045 175.915 265.639 174.67C264.759 173.892 263.325 173.778 262.636 173.725C262.436 173.707 262.282 173.698 262.182 173.672C258.808 173.045 256.64 167.773 254.544 162.687C253.129 159.244 251.514 155.341 250.153 155.279C250.144 155.279 250.126 155.279 250.117 155.279C247.985 155.279 245.155 163.455 243.087 169.433C240.311 177.442 238.768 181.592 236.736 180.886C236.364 180.753 236.074 180.453 235.793 180.171C235.412 179.782 235.031 179.376 234.369 179.27C233.688 179.155 233.226 179.438 232.699 179.756C232.4 179.932 232.092 180.126 231.747 180.232C229.742 180.868 228.39 178.67 226.957 176.33C225.805 174.449 224.499 172.312 222.82 171.676C221.097 171.023 219.799 172.312 218.303 173.813C216.67 175.438 214.81 177.283 212.125 176.63C209.793 176.056 208.405 173.937 207.181 172.065C205.938 170.149 204.858 168.506 203.044 168.436C201.665 168.391 200.812 169.31 199.932 170.29C199.17 171.146 198.39 172.029 197.238 172.047C193.047 172.091 190.262 160.444 186.561 142.608C184.556 132.974 181.825 119.791 179.739 119.791H179.73C178.079 119.818 175.974 128.877 174.432 135.482C171.828 146.678 169.361 157.257 165.143 157.257C165.133 157.257 165.133 157.257 165.124 157.257C164.108 157.248 163.401 156.612 162.784 156.056C162.094 155.429 161.496 154.899 160.452 154.961C158.411 155.085 157.159 157.407 155.835 159.862C154.583 162.193 153.286 164.595 151.145 165.133C148.16 165.875 146.128 162.511 144.151 159.261C142.427 156.418 140.658 153.504 138.472 153.645C135.741 153.866 133.591 158.723 131.514 163.429C129.146 168.771 126.706 174.316 122.896 174.025C121.771 173.945 120.855 173.363 120.047 172.859C118.877 172.118 118.169 171.729 117.199 172.294C116.201 172.886 115.638 174.122 115.094 175.323C114.441 176.762 113.77 178.246 112.318 178.608C111.257 178.873 110.404 178.237 109.578 177.619C108.735 176.983 107.864 176.33 106.576 176.33C105.514 176.33 103.301 177.513 100.352 185.451C100.244 185.707 99.9896 185.884 99.7265 185.884Z" fill="#FFD546"/>
<rect x="234.561" y="118" width="16.9028" height="67.8929" fill="url(#paint2_linear_117_1266)"/>
<path d="M242.871 158.285L244.7 161.454H241.041L242.871 158.285Z" fill="white"/>
<path d="M242.871 149.271L244.7 152.44H241.041L242.871 149.271Z" fill="white"/>
<path d="M242.871 140.256L244.7 143.425H241.041L242.871 140.256Z" fill="white"/>
<path d="M242.871 131.24L244.7 134.41H241.041L242.871 131.24Z" fill="white"/>
<path d="M242.871 122.508L244.7 125.677H241.041L242.871 122.508Z" fill="white"/>
<circle cx="243.012" cy="165.327" r="2.5" fill="white" stroke="#FF358A" stroke-width="0.0708399"/>
<g filter="url(#filter0_d_117_1266)">
<rect x="16.0566" y="146" width="118.429" height="90.887" rx="9" fill="white"/>
</g>
<rect x="26.1553" y="159.771" width="42.2303" height="3.6722" rx="1.8361" fill="#F1F1F1"/>
<rect x="26.1553" y="166.197" width="18.361" height="3.6722" rx="1.8361" fill="#F1F1F1"/>
<rect x="105.107" y="223.116" width="18.361" height="3.6722" rx="1.8361" fill="#F1F1F1"/>
<path d="M53.4566 195C52.1312 195 51.0442 193.923 51.1765 192.604C51.5868 188.514 53.0424 184.584 55.421 181.2C58.2613 177.159 62.2794 174.092 66.9269 172.419C71.5745 170.746 76.6251 170.547 81.3896 171.851C86.1541 173.154 90.4004 175.896 93.549 179.702C96.6976 183.508 98.5951 188.193 98.9827 193.117C99.3702 198.041 98.2289 202.965 95.7144 207.217C93.2 211.469 89.4349 214.841 84.933 216.874C81.1627 218.576 77.0295 219.269 72.9356 218.906C71.6153 218.789 70.7608 217.519 71.0092 216.217C71.2576 214.915 72.5156 214.077 73.8384 214.161C76.9562 214.36 80.0884 213.794 82.9577 212.499C86.5593 210.873 89.5713 208.175 91.5829 204.774C93.5944 201.372 94.5075 197.433 94.1975 193.494C93.8874 189.554 92.3694 185.806 89.8505 182.761C87.3316 179.717 83.9346 177.523 80.123 176.48C76.3114 175.438 72.2709 175.597 68.5529 176.935C64.8348 178.274 61.6204 180.727 59.3482 183.96C57.5379 186.536 56.3959 189.506 56.0064 192.606C55.8412 193.921 54.7821 195 53.4566 195Z" fill="#FF358A"/>
<path d="M68.2255 190.54C68.4335 190.54 68.5935 190.6 68.7055 190.72C68.8175 190.832 68.8735 190.98 68.8735 191.164C68.8735 191.348 68.8175 191.54 68.7055 191.74L64.8775 198.688C64.7175 198.96 64.4975 199.096 64.2175 199.096C64.0255 199.096 63.8535 199.032 63.7015 198.904C63.5575 198.768 63.4855 198.604 63.4855 198.412C63.4855 198.276 63.5255 198.14 63.6055 198.004L67.0495 191.788H63.4255C62.9455 191.788 62.7055 191.584 62.7055 191.176C62.7055 190.752 62.9455 190.54 63.4255 190.54H68.2255ZM74.6048 194.656C75.1008 194.792 75.4808 195.04 75.7448 195.4C76.0168 195.76 76.1528 196.2 76.1528 196.72C76.1528 197.464 75.8728 198.048 75.3128 198.472C74.7528 198.888 73.9768 199.096 72.9848 199.096C71.9928 199.096 71.2168 198.888 70.6568 198.472C70.0968 198.048 69.8168 197.464 69.8168 196.72C69.8168 196.2 69.9528 195.76 70.2248 195.4C70.4968 195.032 70.8808 194.784 71.3768 194.656C70.9528 194.496 70.6208 194.248 70.3808 193.912C70.1408 193.568 70.0208 193.168 70.0208 192.712C70.0208 192.008 70.2848 191.452 70.8128 191.044C71.3408 190.636 72.0648 190.432 72.9848 190.432C73.9048 190.432 74.6288 190.636 75.1568 191.044C75.6848 191.452 75.9488 192.008 75.9488 192.712C75.9488 193.176 75.8288 193.58 75.5888 193.924C75.3488 194.268 75.0208 194.512 74.6048 194.656ZM72.9848 191.644C71.9848 191.644 71.4848 192.052 71.4848 192.868C71.4848 193.276 71.6088 193.588 71.8568 193.804C72.1128 194.012 72.4888 194.116 72.9848 194.116C73.4808 194.116 73.8528 194.012 74.1008 193.804C74.3568 193.588 74.4848 193.276 74.4848 192.868C74.4848 192.052 73.9848 191.644 72.9848 191.644ZM72.9848 197.884C74.1288 197.884 74.7008 197.456 74.7008 196.6C74.7008 195.744 74.1288 195.316 72.9848 195.316C71.8408 195.316 71.2688 195.744 71.2688 196.6C71.2688 197.456 71.8408 197.884 72.9848 197.884ZM80.5641 198.832C80.4921 198.96 80.4041 199.056 80.3001 199.12C80.1961 199.184 80.0921 199.216 79.9881 199.216C79.8441 199.216 79.7161 199.164 79.6041 199.06C79.5001 198.956 79.4481 198.824 79.4481 198.664C79.4481 198.528 79.4881 198.392 79.5681 198.256L83.9361 190.708C84.0081 190.58 84.0961 190.484 84.2001 190.42C84.3041 190.356 84.4081 190.324 84.5121 190.324C84.6561 190.324 84.7801 190.376 84.8841 190.48C84.9961 190.584 85.0521 190.716 85.0521 190.876C85.0521 191.012 85.0121 191.148 84.9321 191.284L80.5641 198.832ZM79.2321 195.592C78.5601 195.592 78.0361 195.372 77.6601 194.932C77.2841 194.492 77.0961 193.848 77.0961 193C77.0961 192.16 77.2841 191.52 77.6601 191.08C78.0361 190.64 78.5601 190.42 79.2321 190.42C79.9041 190.42 80.4281 190.64 80.8041 191.08C81.1881 191.52 81.3801 192.16 81.3801 193C81.3801 193.848 81.1881 194.492 80.8041 194.932C80.4281 195.372 79.9041 195.592 79.2321 195.592ZM79.2321 194.62C79.5361 194.62 79.7561 194.496 79.8921 194.248C80.0361 193.992 80.1081 193.576 80.1081 193C80.1081 192.44 80.0361 192.032 79.8921 191.776C79.7481 191.52 79.5281 191.392 79.2321 191.392C78.9361 191.392 78.7161 191.52 78.5721 191.776C78.4361 192.024 78.3681 192.432 78.3681 193C78.3681 193.576 78.4361 193.992 78.5721 194.248C78.7161 194.496 78.9361 194.62 79.2321 194.62ZM85.2681 199.084C84.5961 199.084 84.0721 198.864 83.6961 198.424C83.3201 197.984 83.1321 197.336 83.1321 196.48C83.1321 195.64 83.3201 195.004 83.6961 194.572C84.0801 194.132 84.6041 193.912 85.2681 193.912C85.9401 193.912 86.4641 194.132 86.8401 194.572C87.2161 195.012 87.4041 195.652 87.4041 196.492C87.4041 197.34 87.2161 197.984 86.8401 198.424C86.4641 198.864 85.9401 199.084 85.2681 199.084ZM85.2681 198.112C85.5641 198.112 85.7841 197.988 85.9281 197.74C86.0721 197.484 86.1441 197.068 86.1441 196.492C86.1441 195.932 86.0721 195.524 85.9281 195.268C85.7841 195.012 85.5641 194.884 85.2681 194.884C84.9721 194.884 84.7521 195.012 84.6081 195.268C84.4641 195.524 84.3921 195.932 84.3921 196.492C84.3921 197.068 84.4641 197.484 84.6081 197.74C84.7521 197.988 84.9721 198.112 85.2681 198.112Z" fill="#141414"/>
<defs>
<filter id="filter0_d_117_1266" x="0.0566406" y="135" width="160.429" height="132.887" filterUnits="userSpaceOnUse" color-interpolation-filters="sRGB">
<feFlood flood-opacity="0" result="BackgroundImageFix"/>
<feColorMatrix in="SourceAlpha" type="matrix" values="0 0 0 0 0 0 0 0 0 0 0 0 0 0 0 0 0 0 127 0" result="hardAlpha"/>
<feOffset dx="5" dy="10"/>
<feGaussianBlur stdDeviation="10.5"/>
<feComposite in2="hardAlpha" operator="out"/>
<feColorMatrix type="matrix" values="0 0 0 0 0.700272 0 0 0 0 0.700272 0 0 0 0 0.700272 0 0 0 0.25 0"/>
<feBlend mode="normal" in2="BackgroundImageFix" result="effect1_dropShadow_117_1266"/>
<feBlend mode="normal" in="SourceGraphic" in2="effect1_dropShadow_117_1266" result="shape"/>
</filter>
<linearGradient id="paint0_linear_117_1266" x1="184.627" y1="132.795" x2="184.627" y2="185.893" gradientUnits="userSpaceOnUse">
<stop stop-color="#D1EEFF"/>
<stop offset="1" stop-color="#D3EFFF" stop-opacity="0"/>
</linearGradient>
<linearGradient id="paint1_linear_117_1266" x1="184.486" y1="118.985" x2="184.486" y2="185.892" gradientUnits="userSpaceOnUse">
<stop stop-color="#FFF0BE"/>
<stop offset="1" stop-color="#FFF8DE" stop-opacity="0"/>
</linearGradient>
<linearGradient id="paint2_linear_117_1266" x1="243.012" y1="118" x2="243.012" y2="185.893" gradientUnits="userSpaceOnUse">
<stop stop-color="#FF358A"/>
<stop offset="1" stop-color="#C4C4C4" stop-opacity="0"/>
</linearGradient>
</defs>
</svg>
