<svg width="129" height="160" viewBox="0 0 129 160" fill="none" xmlns="http://www.w3.org/2000/svg">
<rect y="160" width="160" height="129" rx="23" transform="rotate(-90 0 160)" fill="#6046FF"/>
<path d="M64.6494 81.6972C71.5303 81.6972 77.1084 76.1192 77.1084 69.2383C77.1084 62.3574 71.5303 56.7793 64.6494 56.7793C57.7685 56.7793 52.1904 62.3574 52.1904 69.2383C52.1904 76.1192 57.7685 81.6972 64.6494 81.6972Z" fill="#907EFF"/>
<path d="M85.8692 69.3308C85.8692 71.4215 81.7639 72.8312 81.1518 74.716C80.5185 76.6694 82.9881 80.2226 81.8061 81.8487C80.6135 83.4907 76.4607 82.2341 74.8196 83.4273C73.1943 84.61 73.1152 88.9551 71.1628 89.5886C69.2789 90.2011 66.6722 86.7535 64.5826 86.7535C62.493 86.7535 59.8862 90.2011 58.0024 89.5886C56.05 88.9551 55.9708 84.61 54.3455 83.4273C52.7045 82.2341 48.5516 83.4907 47.359 81.8487C46.177 80.2226 48.6466 76.6694 48.0134 74.716C47.4013 72.8312 43.2959 71.4162 43.2959 69.3308C43.2959 67.2453 47.4013 65.8304 48.0134 63.9456C48.6466 61.9921 46.177 58.4389 47.359 56.8128C48.5516 55.1709 52.7045 56.4274 54.3455 55.2342C55.9708 54.0516 56.05 49.7065 58.0024 49.0729C59.8862 48.4605 62.493 51.9081 64.5826 51.9081C66.6722 51.9081 69.2789 48.4605 71.1628 49.0729C73.1152 49.7065 73.1943 54.0516 74.8196 55.2342C76.4607 56.4274 80.6135 55.1709 81.8061 56.8128C82.9881 58.4389 80.5185 61.9921 81.1518 63.9456C81.7586 65.8251 85.8692 67.24 85.8692 69.3308Z" stroke="white" stroke-width="2.5" stroke-miterlimit="10"/>
<path d="M64.25 90.4806L73.1731 110.876C73.7694 112.238 75.6163 112.391 76.0753 111.119L77.5476 106.224C77.8325 105.427 78.7507 105.116 79.5739 105.538L84.381 108.257C85.695 108.928 86.9403 107.74 86.3493 106.383L75.9804 82.6826" stroke="white" stroke-width="2.5" stroke-miterlimit="10"/>
<path d="M65.7384 87.0805L55.3272 110.876C54.731 112.238 52.8841 112.391 52.425 111.119L50.9528 106.224C50.6678 105.427 49.7497 105.116 48.9265 105.538L44.1193 108.257C42.8054 108.928 41.56 107.74 42.151 106.383L52.5253 82.6826" stroke="white" stroke-width="2.5" stroke-miterlimit="10"/>
</svg>
