<svg width="129" height="160" viewBox="0 0 129 160" fill="none" xmlns="http://www.w3.org/2000/svg">
<rect y="160" width="160" height="129" rx="23" transform="rotate(-90 0 160)" fill="#6046FF"/>
<path d="M89.1213 69.3269C89.1213 54.7385 76.9173 43.0312 62.27 44.0634C49.969 44.9258 39.9822 54.9606 39.0708 67.3931C38.2693 78.3426 44.3518 87.9462 53.4014 92.2516C54.7588 92.8983 55.625 94.2768 55.625 95.7925V101.796V106.33C55.625 110.708 58.7988 114.549 63.1038 115.032C68.191 115.601 72.5024 111.59 72.5024 106.559V95.7925C72.5024 94.2768 73.3751 92.8983 74.7325 92.2516C83.2326 88.1945 89.1213 79.4597 89.1213 69.3269Z" stroke="white" stroke-width="2.5" stroke-miterlimit="10"/>
<path d="M72.4966 101.45H55.6191" stroke="white" stroke-width="2.5" stroke-miterlimit="10"/>
<path d="M64.0601 70.9531C59.1539 70.9531 55.1592 74.9906 55.1592 79.9492V85.1888C57.7642 86.7567 60.8087 87.6648 64.0601 87.6648C67.3114 87.6648 70.356 86.7632 72.961 85.1888V79.9492C72.961 74.9906 68.9662 70.9531 64.0601 70.9531Z" fill="#907EFF"/>
<path d="M50.7705 79.9496C50.7705 72.5411 56.7303 66.5175 64.0604 66.5175C71.3906 66.5175 77.3503 72.5411 77.3503 79.9496V81.4326C79.923 78.3621 81.4743 74.3965 81.4743 70.065C81.4743 60.3438 73.6788 52.4648 64.0604 52.4648C54.442 52.4648 46.6465 60.3438 46.6465 70.065C46.6465 74.403 48.1978 78.3686 50.7705 81.4326V79.9496Z" fill="#907EFF"/>
</svg>
