<svg width="300" height="116" viewBox="0 0 300 116" fill="none" xmlns="http://www.w3.org/2000/svg">
<path d="M255 75.1659C254.568 75.296 253.877 75.426 252.926 75.5561C252.019 75.6861 251.069 75.7511 250.075 75.7511C249.124 75.7511 248.26 75.6861 247.483 75.5561C246.748 75.426 246.122 75.1659 245.603 74.7758C245.085 74.3857 244.675 73.8655 244.372 73.2153C244.113 72.5217 243.983 71.633 243.983 70.5493V56.1144C243.983 54.3371 243.53 53.1017 242.622 52.4081C241.758 51.6712 240.678 51.3027 239.382 51.3027C238.518 51.3027 237.697 51.4111 236.92 51.6278C236.142 51.8446 235.515 52.1046 235.04 52.4081V75.1659C234.608 75.296 233.917 75.426 232.966 75.5561C232.059 75.6861 231.109 75.7511 230.115 75.7511C229.165 75.7511 228.301 75.6861 227.523 75.5561C226.788 75.426 226.162 75.1659 225.644 74.7758C225.125 74.3857 224.715 73.8655 224.412 73.2153C224.153 72.5217 224.023 71.633 224.023 70.5493V32.8363C224.499 32.7496 225.19 32.6413 226.097 32.5112C227.048 32.3378 227.998 32.2511 228.949 32.2511C229.899 32.2511 230.742 32.3161 231.476 32.4462C232.254 32.5762 232.902 32.8363 233.42 33.2265C233.939 33.6166 234.327 34.1585 234.587 34.852C234.889 35.5023 235.04 36.3692 235.04 37.4529V43.8251C235.602 43.6084 236.444 43.37 237.568 43.1099C238.734 42.8064 240.009 42.6547 241.391 42.6547C245.668 42.6547 248.995 43.7384 251.371 45.9058C253.79 48.0299 255 51.216 255 55.4641V75.1659Z" fill="url(#paint0_linear_10_22)"/>
<path d="M202.483 42.6547C204.946 42.6547 207.171 42.9798 209.158 43.63C211.189 44.2369 212.895 45.0389 214.278 46.0359C215.142 46.6427 215.812 47.3146 216.287 48.0516C216.805 48.7885 217.064 49.7421 217.064 50.9125V73.6704C217.064 75.9679 216.632 77.9402 215.768 79.5874C214.904 81.278 213.716 82.6652 212.204 83.7489C210.735 84.8759 208.985 85.6995 206.955 86.2197C204.968 86.7399 202.829 87 200.539 87C196.608 87 193.519 86.4581 191.272 85.3744C189.026 84.3341 187.902 82.6218 187.902 80.2377C187.902 79.2406 188.097 78.352 188.486 77.5717C188.918 76.8348 189.393 76.2713 189.911 75.8812C191.164 76.5747 192.568 77.1599 194.124 77.6368C195.722 78.1136 197.364 78.352 199.049 78.352C201.382 78.352 203.239 77.9619 204.622 77.1816C206.004 76.4013 206.696 75.1442 206.696 73.4103V72.3699C204.924 73.1502 202.764 73.5403 200.215 73.5403C198.271 73.5403 196.413 73.2586 194.642 72.6951C192.914 72.0882 191.38 71.1779 190.041 69.9641C188.745 68.707 187.686 67.1031 186.865 65.1525C186.088 63.2018 185.699 60.8826 185.699 58.1951C185.699 55.5508 186.109 53.2534 186.93 51.3027C187.794 49.352 188.961 47.7481 190.43 46.491C191.942 45.1906 193.713 44.2369 195.744 43.63C197.817 42.9798 200.064 42.6547 202.483 42.6547ZM206.501 52.0829C206.199 51.9096 205.745 51.7362 205.14 51.5628C204.579 51.3894 203.866 51.3027 203.002 51.3027C200.885 51.3027 199.286 51.9096 198.206 53.1233C197.169 54.2937 196.651 55.9843 196.651 58.1951C196.651 60.7093 197.169 62.5299 198.206 63.6569C199.286 64.7406 200.647 65.2825 202.289 65.2825C204.06 65.2825 205.464 64.8707 206.501 64.0471V52.0829Z" fill="url(#paint1_linear_10_22)"/>
<path d="M168.576 34.852C168.576 33.2048 169.116 31.8176 170.196 30.6906C171.319 29.5635 172.788 29 174.603 29C176.417 29 177.865 29.5635 178.945 30.6906C180.068 31.8176 180.63 33.2048 180.63 34.852C180.63 36.4993 180.068 37.8864 178.945 39.0135C177.865 40.1405 176.417 40.704 174.603 40.704C172.788 40.704 171.319 40.1405 170.196 39.0135C169.116 37.8864 168.576 36.4993 168.576 34.852ZM180.111 75.1659C179.636 75.2526 178.923 75.361 177.973 75.491C177.065 75.6644 176.136 75.7511 175.186 75.7511C174.236 75.7511 173.371 75.6861 172.594 75.5561C171.859 75.426 171.233 75.1659 170.714 74.7758C170.196 74.3857 169.786 73.8655 169.483 73.2153C169.224 72.5217 169.094 71.633 169.094 70.5493V44.0852C169.57 43.9985 170.261 43.8901 171.168 43.7601C172.119 43.5867 173.069 43.5 174.02 43.5C174.97 43.5 175.812 43.565 176.547 43.6951C177.325 43.8251 177.973 44.0852 178.491 44.4753C179.009 44.8655 179.398 45.4073 179.658 46.1009C179.96 46.7511 180.111 47.6181 180.111 48.7018V75.1659Z" fill="url(#paint2_linear_10_22)"/>
<path d="M161.261 74.9709C160.786 75.1009 160.03 75.2309 158.993 75.361C157.999 75.491 157.006 75.5561 156.012 75.5561C155.018 75.5561 154.133 75.4694 153.355 75.296C152.62 75.1659 151.994 74.9058 151.476 74.5157C150.957 74.1256 150.568 73.5837 150.309 72.8901C150.05 72.1966 149.92 71.2863 149.92 70.1592V60.0157H137.478V74.9709C137.003 75.1009 136.246 75.2309 135.21 75.361C134.216 75.491 133.222 75.5561 132.229 75.5561C131.235 75.5561 130.349 75.4694 129.572 75.296C128.837 75.1659 128.211 74.9058 127.692 74.5157C127.174 74.1256 126.785 73.5837 126.526 72.8901C126.267 72.1966 126.137 71.2863 126.137 70.1592V35.8274C126.612 35.7407 127.368 35.6323 128.405 35.5022C129.442 35.3289 130.436 35.2422 131.386 35.2422C132.38 35.2422 133.244 35.3289 133.978 35.5022C134.756 35.6323 135.404 35.8924 135.922 36.2825C136.441 36.6727 136.83 37.2145 137.089 37.9081C137.348 38.6016 137.478 39.512 137.478 40.639V51.0426H149.92V35.8274C150.396 35.7407 151.152 35.6323 152.188 35.5022C153.225 35.3289 154.219 35.2422 155.169 35.2422C156.163 35.2422 157.027 35.3289 157.762 35.5022C158.539 35.6323 159.187 35.8924 159.706 36.2825C160.224 36.6727 160.613 37.2145 160.872 37.9081C161.131 38.6016 161.261 39.512 161.261 40.639V74.9709Z" fill="url(#paint3_linear_10_22)"/>
<path d="M101.838 42.6547C104.43 42.6547 106.828 43.0015 109.031 43.6951C111.278 44.3453 113.2 45.364 114.799 46.7511C116.397 48.1383 117.65 49.8939 118.557 52.0179C119.465 54.0986 119.918 56.5912 119.918 59.4955C119.918 62.2698 119.529 64.6973 118.752 66.778C117.974 68.8587 116.872 70.6143 115.447 72.0448C114.021 73.432 112.293 74.4723 110.262 75.1659C108.275 75.8595 106.05 76.2063 103.587 76.2063C101.73 76.2063 100.002 75.9245 98.403 75.361V86.1547C97.971 86.2847 97.2797 86.4148 96.3293 86.5448C95.3788 86.7182 94.4067 86.8049 93.4131 86.8049C92.4626 86.8049 91.5985 86.7399 90.8209 86.6099C90.0864 86.4798 89.46 86.2197 88.9415 85.8296C88.4231 85.4395 88.0343 84.8976 87.7751 84.204C87.5158 83.5538 87.3862 82.6868 87.3862 81.6031V50.3924C87.3862 49.222 87.6238 48.2683 88.0991 47.5314C88.6175 46.7945 89.3088 46.1226 90.1728 45.5157C91.5121 44.6487 93.1754 43.9551 95.1628 43.435C97.1501 42.9148 99.3751 42.6547 101.838 42.6547ZM101.967 67.4933C106.417 67.4933 108.642 64.8273 108.642 59.4955C108.642 56.7212 108.081 54.6622 106.957 53.3184C105.877 51.9746 104.3 51.3027 102.226 51.3027C101.406 51.3027 100.671 51.411 100.023 51.6278C99.3751 51.8012 98.8135 52.0179 98.3382 52.278V66.583C98.8567 66.843 99.4183 67.0598 100.023 67.2332C100.628 67.4066 101.276 67.4933 101.967 67.4933Z" fill="url(#paint4_linear_10_22)"/>
<path d="M79.9945 60.6659C79.9945 63.0067 79.5841 65.1525 78.7632 67.1032C77.9856 69.0105 76.8407 70.6577 75.3286 72.0449C73.8165 73.3887 71.9803 74.429 69.8202 75.1659C67.66 75.9029 65.2191 76.2713 62.4973 76.2713C59.7755 76.2713 57.3345 75.9029 55.1743 75.1659C53.0142 74.429 51.178 73.3887 49.6659 72.0449C48.1538 70.6577 46.9873 69.0105 46.1665 67.1032C45.3888 65.1525 45 63.0067 45 60.6659V35.8274C45.4752 35.7407 46.2313 35.6323 47.2682 35.5022C48.305 35.3289 49.2987 35.2422 50.2492 35.2422C51.2428 35.2422 52.1069 35.3289 52.8414 35.5022C53.619 35.6323 54.2671 35.8924 54.7855 36.2825C55.3039 36.6727 55.6928 37.2145 55.952 37.9081C56.2112 38.6016 56.3408 39.512 56.3408 40.639V60.4709C56.3408 62.5516 56.9025 64.1771 58.0257 65.3475C59.1922 66.518 60.6827 67.1032 62.4973 67.1032C64.355 67.1032 65.8455 66.518 66.9688 65.3475C68.0921 64.1771 68.6537 62.5516 68.6537 60.4709V35.8274C69.1289 35.7407 69.885 35.6323 70.9219 35.5022C71.9587 35.3289 72.9524 35.2422 73.9029 35.2422C74.8965 35.2422 75.7606 35.3289 76.4951 35.5022C77.2727 35.6323 77.9208 35.8924 78.4392 36.2825C78.9576 36.6727 79.3465 37.2145 79.6057 37.9081C79.8649 38.6016 79.9945 39.512 79.9945 40.639V60.6659Z" fill="url(#paint5_linear_10_22)"/>
<defs>
<linearGradient id="paint0_linear_10_22" x1="40.9822" y1="-0.79527" x2="173.412" y2="199.934" gradientUnits="userSpaceOnUse">
<stop offset="0.125" stop-color="#A1D0F0"/>
<stop offset="0.5625" stop-color="#E74561"/>
</linearGradient>
<linearGradient id="paint1_linear_10_22" x1="40.9821" y1="-0.795289" x2="173.412" y2="199.934" gradientUnits="userSpaceOnUse">
<stop offset="0.125" stop-color="#A1D0F0"/>
<stop offset="0.5625" stop-color="#E74561"/>
</linearGradient>
<linearGradient id="paint2_linear_10_22" x1="40.982" y1="-0.795282" x2="173.412" y2="199.934" gradientUnits="userSpaceOnUse">
<stop offset="0.125" stop-color="#A1D0F0"/>
<stop offset="0.5625" stop-color="#E74561"/>
</linearGradient>
<linearGradient id="paint3_linear_10_22" x1="40.982" y1="-0.795268" x2="173.412" y2="199.934" gradientUnits="userSpaceOnUse">
<stop offset="0.125" stop-color="#A1D0F0"/>
<stop offset="0.5625" stop-color="#E74561"/>
</linearGradient>
<linearGradient id="paint4_linear_10_22" x1="40.9822" y1="-0.79529" x2="173.412" y2="199.934" gradientUnits="userSpaceOnUse">
<stop offset="0.125" stop-color="#A1D0F0"/>
<stop offset="0.5625" stop-color="#E74561"/>
</linearGradient>
<linearGradient id="paint5_linear_10_22" x1="40.9821" y1="-0.795267" x2="173.412" y2="199.934" gradientUnits="userSpaceOnUse">
<stop offset="0.125" stop-color="#A1D0F0"/>
<stop offset="0.5625" stop-color="#E74561"/>
</linearGradient>
</defs>
</svg>
