<svg width="129" height="160" viewBox="0 0 129 160" fill="none" xmlns="http://www.w3.org/2000/svg">
<rect y="160" width="160" height="129" rx="23" transform="rotate(-90 0 160)" fill="#6046FF"/>
<path d="M81.6645 89.8633L72.9814 98.5198C71.8689 99.6283 70.3702 100.247 68.7995 100.247H45.9226C42.6523 100.247 40 97.5918 40 94.3179V59.9291C40 56.6552 42.6523 54 45.9226 54H77.4826C80.7529 54 83.4052 56.6552 83.4052 59.9291V85.6614C83.4103 87.2391 82.782 88.7497 81.6645 89.8633Z" stroke="white" stroke-width="2.5" stroke-miterlimit="10"/>
<path d="M86.9279 95.3956L78.2448 104.052C77.1323 105.161 75.6336 105.779 74.0629 105.779H51.1912C47.9209 105.779 45.2686 103.124 45.2686 99.8501V65.4613C45.2686 62.1874 47.9209 59.5322 51.1912 59.5322H82.7511C86.0214 59.5322 88.6737 62.1874 88.6737 65.4613V91.1936C88.6737 92.7713 88.0454 94.2819 86.9279 95.3956Z" fill="#907EFF"/>
<path d="M53.7256 73.5497C53.7256 72.9063 54.2471 72.3848 54.8905 72.3848H79.7424C80.3858 72.3848 80.9073 72.9063 80.9073 73.5497C80.9073 74.1931 80.3858 74.7146 79.7424 74.7146H54.8905C54.2471 74.7146 53.7256 74.1931 53.7256 73.5497Z" fill="white"/>
<path d="M53.7256 78.9862C53.7256 78.3428 54.2471 77.8213 54.8905 77.8213H79.7424C80.3858 77.8213 80.9073 78.3428 80.9073 78.9862C80.9073 79.6296 80.3858 80.1512 79.7424 80.1512H54.8905C54.2471 80.1512 53.7256 79.6296 53.7256 78.9862Z" fill="white"/>
<path d="M53.7256 84.4218C53.7256 83.7784 54.2471 83.2568 54.8905 83.2568H79.7424C80.3858 83.2568 80.9073 83.7784 80.9073 84.4218C80.9073 85.0651 80.3858 85.5867 79.7424 85.5867H54.8905C54.2471 85.5867 53.7256 85.0651 53.7256 84.4218Z" fill="white"/>
<path d="M53.7256 89.8583C53.7256 89.2149 54.2471 88.6934 54.8905 88.6934H67.3165C67.9598 88.6934 68.4814 89.2149 68.4814 89.8583C68.4814 90.5017 67.9598 91.0232 67.3165 91.0232H54.8905C54.2471 91.0232 53.7256 90.5017 53.7256 89.8583Z" fill="white"/>
</svg>
