<svg width="129" height="160" viewBox="0 0 129 160" fill="none" xmlns="http://www.w3.org/2000/svg">
<rect y="160" width="160" height="129" rx="23" transform="rotate(-90 0 160)" fill="#6046FF"/>
<path d="M89.1622 108.968C92.2448 108.968 94.4924 106.079 93.7603 103.093C91.1181 92.334 81.3728 84.3447 69.7574 84.3447C58.1419 84.3447 48.3909 92.334 45.7544 103.098C45.0223 106.084 47.2699 108.968 50.3525 108.968H89.1622Z" stroke="white" stroke-width="2.5" stroke-miterlimit="10"/>
<path d="M69.7565 78.9653C77.1507 78.9653 83.1449 72.9928 83.1449 65.6252C83.1449 58.2577 77.1507 52.2852 69.7565 52.2852C62.3623 52.2852 56.3682 58.2577 56.3682 65.6252C56.3682 72.9928 62.3623 78.9653 69.7565 78.9653Z" stroke="white" stroke-width="2.5" stroke-miterlimit="10"/>
<path d="M41.413 101.218C43.6205 92.2255 49.3053 85.1651 59.2851 81.8828C48.0414 82.2589 37.7185 89.4105 35.1392 99.9127C34.4071 102.899 36.6547 105.782 39.7373 105.782H42.2422C41.373 104.506 41.0069 102.876 41.413 101.218Z" fill="#907EFF"/>
<path d="M52.3597 62.9701C52.3597 54.7188 59.0739 48.0288 67.3551 48.0288C70.2832 48.0288 73.017 48.8665 75.3218 50.3139C72.7768 46.513 68.4303 44 63.4947 44C55.6596 44 49.3057 50.331 49.3057 58.1436C49.3057 61.8988 50.7812 65.3122 53.1775 67.848C52.6513 66.3151 52.3597 64.6797 52.3597 62.9701Z" fill="#907EFF"/>
</svg>
